<mxfile host="app.diagrams.net" modified="2021-08-07T07:46:07.931Z" agent="5.0 (Macintosh; Intel Mac OS X 10_15_7) AppleWebKit/537.36 (KHTML, like Gecko) Chrome/92.0.4515.131 Safari/537.36" etag="WJiscPWtka94Hk4K4yZM" version="14.9.5" type="github">
  <diagram id="zkGzzeRNHyQa1Ix29DrY" name="ページ1">
    <mxGraphModel dx="1466" dy="1180" grid="1" gridSize="10" guides="1" tooltips="1" connect="1" arrows="1" fold="1" page="1" pageScale="1" pageWidth="827" pageHeight="1169" math="0" shadow="0">
      <root>
        <mxCell id="0" />
        <mxCell id="1" parent="0" />
        <mxCell id="JMHAezPrtOHfuT_MYLwp-1" parent="0" />
        <UserObject label="Start" lucidchartObjectId="-.MDxyrSrIoQ" id="JMHAezPrtOHfuT_MYLwp-2">
          <mxCell style="html=1;overflow=block;blockSpacing=1;whiteSpace=wrap;rounded=1;arcSize=50;whiteSpace=wrap;fontSize=13.5;fontColor=#333333;fontStyle=3;align=center;spacing=3.8;strokeOpacity=0;fillOpacity=100;fillColor=#ff741d;strokeWidth=0.8;" parent="JMHAezPrtOHfuT_MYLwp-1" vertex="1">
            <mxGeometry x="600" y="121" width="120" height="60" as="geometry" />
          </mxCell>
        </UserObject>
        <UserObject label="input &#xa;numbers" lucidchartObjectId="028YqD6ngW_Q" id="JMHAezPrtOHfuT_MYLwp-3">
          <mxCell style="html=1;overflow=block;blockSpacing=1;whiteSpace=wrap;shape=manualInput;size=15;whiteSpace=wrap;fontSize=13.5;fontColor=#333333;fontStyle=3;align=center;spacing=3.8;strokeOpacity=0;fillOpacity=100;rounded=1;absoluteArcSize=1;arcSize=12;fillColor=#ff8839;strokeWidth=1.5;" parent="JMHAezPrtOHfuT_MYLwp-1" vertex="1">
            <mxGeometry x="599" y="225" width="120" height="90" as="geometry" />
          </mxCell>
        </UserObject>
        <UserObject label="" lucidchartObjectId="waNDZNUiQg9J" id="JMHAezPrtOHfuT_MYLwp-4">
          <mxCell style="html=1;jettySize=18;whiteSpace=wrap;fontSize=13;strokeColor=#333333;strokeOpacity=100;strokeWidth=0.8;rounded=1;arcSize=24;edgeStyle=orthogonalEdgeStyle;startArrow=none;;endArrow=block;endFill=1;;exitX=0.5;exitY=1;exitPerimeter=0;entryX=0.508;entryY=0.082;entryPerimeter=0;" parent="JMHAezPrtOHfuT_MYLwp-1" source="JMHAezPrtOHfuT_MYLwp-2" target="JMHAezPrtOHfuT_MYLwp-3" edge="1">
            <mxGeometry width="100" height="100" relative="1" as="geometry">
              <Array as="points" />
            </mxGeometry>
          </mxCell>
        </UserObject>
        <mxCell id="JMHAezPrtOHfuT_MYLwp-5" value="" style="group;dropTarget=0;" parent="JMHAezPrtOHfuT_MYLwp-1" vertex="1">
          <mxGeometry x="340" y="52" width="640" height="46" as="geometry" />
        </mxCell>
        <UserObject label="push swap" lucidchartObjectId="SuaB0mNpY13K" id="JMHAezPrtOHfuT_MYLwp-6">
          <mxCell style="html=1;overflow=block;blockSpacing=1;whiteSpace=wrap;;whiteSpace=wrap;fontSize=19.7;fontColor=#333333;fontStyle=1;align=center;spacingLeft=7;spacingRight=7;spacingTop=2;spacing=3;strokeOpacity=0;fillOpacity=0;rounded=1;absoluteArcSize=1;arcSize=12;fillColor=#ffffff;strokeWidth=1.5;" parent="JMHAezPrtOHfuT_MYLwp-5" vertex="1">
            <mxGeometry width="640" height="34" as="geometry" />
          </mxCell>
        </UserObject>
        <UserObject label="%creatorName%  |  %date{mmmm d, yyyy}%" placeholders="1" lucidchartObjectId="SuaBzqFhpa1o" id="JMHAezPrtOHfuT_MYLwp-7">
          <mxCell style="html=1;overflow=block;blockSpacing=1;whiteSpace=wrap;;whiteSpace=wrap;fontSize=11.5;fontColor=#333333;fontStyle=1;align=center;spacingLeft=7;spacingRight=7;spacingTop=2;spacing=3;strokeOpacity=0;fillOpacity=0;rounded=1;absoluteArcSize=1;arcSize=12;fillColor=#ffffff;strokeWidth=1.5;" parent="JMHAezPrtOHfuT_MYLwp-5" vertex="1">
            <mxGeometry y="32" width="640" height="14" as="geometry" />
          </mxCell>
        </UserObject>
        <UserObject label="" lucidchartObjectId="SuaBUnwJteK4" id="JMHAezPrtOHfuT_MYLwp-8">
          <mxCell style="html=1;jettySize=18;whiteSpace=wrap;fontSize=13;fontFamily=Helvetica;strokeColor=#a9afb8;strokeOpacity=100;strokeWidth=1.5;rounded=0;startArrow=none;;endArrow=none;;" parent="JMHAezPrtOHfuT_MYLwp-5" edge="1">
            <mxGeometry width="100" height="100" relative="1" as="geometry">
              <Array as="points" />
              <mxPoint x="191" y="31" as="sourcePoint" />
              <mxPoint x="454" y="31" as="targetPoint" />
            </mxGeometry>
          </mxCell>
        </UserObject>
        <UserObject label="Contain&#xa;non-integer&#xa;numbers?" lucidchartObjectId="aqH1RX~mAXzM" id="JMHAezPrtOHfuT_MYLwp-22">
          <mxCell style="html=1;overflow=block;blockSpacing=1;whiteSpace=wrap;rhombus;whiteSpace=wrap;fontSize=13.5;fontColor=#333333;fontStyle=3;align=center;spacing=3.8;strokeColor=#fe5900;strokeOpacity=100;rounded=1;absoluteArcSize=1;arcSize=12;strokeWidth=3;" parent="JMHAezPrtOHfuT_MYLwp-1" vertex="1">
            <mxGeometry x="598" y="375" width="122" height="108" as="geometry" />
          </mxCell>
        </UserObject>
        <UserObject label="" lucidchartObjectId="aqH1aQfbwbNa" id="JMHAezPrtOHfuT_MYLwp-23">
          <mxCell style="html=1;overflow=block;blockSpacing=1;whiteSpace=wrap;shape=mxgraph.flowchart.multi-document;whiteSpace=wrap;fontSize=13;spacing=3.8;strokeColor=#ffffff;strokeOpacity=100;fillOpacity=100;rounded=1;absoluteArcSize=1;arcSize=12;fillColor=#ff9e56;strokeWidth=0.8;" parent="JMHAezPrtOHfuT_MYLwp-1" vertex="1">
            <mxGeometry x="373" y="384" width="120" height="90" as="geometry" />
          </mxCell>
        </UserObject>
        <UserObject label="Contain non-integer numbers" lucidchartObjectId="aqH1fj7msSZE" id="JMHAezPrtOHfuT_MYLwp-24">
          <mxCell style="html=1;overflow=block;blockSpacing=1;whiteSpace=wrap;;whiteSpace=wrap;fontSize=13.5;fontColor=#333333;fontStyle=3;spacing=3.8;strokeOpacity=0;fillOpacity=100;rounded=1;absoluteArcSize=1;arcSize=12;fillColor=#ff8839;strokeWidth=1.5;" parent="JMHAezPrtOHfuT_MYLwp-1" vertex="1">
            <mxGeometry x="360" y="195" width="120" height="90" as="geometry" />
          </mxCell>
        </UserObject>
        <UserObject label="" lucidchartObjectId="aqH1-w0HYWpc" id="JMHAezPrtOHfuT_MYLwp-25">
          <mxCell style="html=1;jettySize=18;whiteSpace=wrap;fontSize=13;strokeColor=#333333;strokeOpacity=100;strokeWidth=0.8;rounded=1;arcSize=24;edgeStyle=orthogonalEdgeStyle;startArrow=none;;endArrow=block;endFill=1;;entryX=0.5;entryY=0.008;entryPerimeter=0;" parent="JMHAezPrtOHfuT_MYLwp-1" target="JMHAezPrtOHfuT_MYLwp-22" edge="1">
            <mxGeometry width="100" height="100" relative="1" as="geometry">
              <Array as="points" />
              <mxPoint x="659" y="315" as="sourcePoint" />
            </mxGeometry>
          </mxCell>
        </UserObject>
        <UserObject label="" lucidchartObjectId="aqH1zE9Zruaw" id="JMHAezPrtOHfuT_MYLwp-26">
          <mxCell style="html=1;jettySize=18;whiteSpace=wrap;fontSize=11.7;fontColor=#333333;fontStyle=1;strokeColor=#333333;strokeOpacity=100;strokeWidth=0.8;rounded=1;arcSize=24;edgeStyle=orthogonalEdgeStyle;startArrow=none;;endArrow=block;endFill=1;;exitX=0.99;exitY=0.5;exitPerimeter=0;entryX=0.5;entryY=0.1;entryPerimeter=0;" parent="JMHAezPrtOHfuT_MYLwp-1" source="JMHAezPrtOHfuT_MYLwp-22" target="JMHAezPrtOHfuT_MYLwp-32" edge="1">
            <mxGeometry width="100" height="100" relative="1" as="geometry">
              <Array as="points" />
            </mxGeometry>
          </mxCell>
        </UserObject>
        <mxCell id="JMHAezPrtOHfuT_MYLwp-27" value="YES" style="text;html=1;resizable=0;labelBackgroundColor=#ffffff;align=center;verticalAlign=middle;fontStyle=1;fontColor=#333333;;fontSize=11.7;" parent="JMHAezPrtOHfuT_MYLwp-26" vertex="1">
          <mxGeometry x="-0.3595269407442959" relative="1" as="geometry" />
        </mxCell>
        <UserObject label="" lucidchartObjectId="aqH1hanPTFJE" id="JMHAezPrtOHfuT_MYLwp-28">
          <mxCell style="html=1;jettySize=18;whiteSpace=wrap;fontSize=11.7;fontColor=#333333;fontStyle=1;align=center;strokeColor=#333333;strokeOpacity=100;strokeWidth=0.8;rounded=1;arcSize=24;edgeStyle=orthogonalEdgeStyle;startArrow=none;;endArrow=block;endFill=1;;exitX=0.5;exitY=0.992;exitPerimeter=0;entryX=0.5;entryY=0.008;entryPerimeter=0;" parent="JMHAezPrtOHfuT_MYLwp-1" source="JMHAezPrtOHfuT_MYLwp-22" target="JMHAezPrtOHfuT_MYLwp-49" edge="1">
            <mxGeometry width="100" height="100" relative="1" as="geometry">
              <Array as="points" />
            </mxGeometry>
          </mxCell>
        </UserObject>
        <mxCell id="JMHAezPrtOHfuT_MYLwp-29" value="NO" style="text;html=1;resizable=0;labelBackgroundColor=#ffffff;align=center;verticalAlign=middle;fontStyle=1;fontColor=#333333;;fontSize=11.7;" parent="JMHAezPrtOHfuT_MYLwp-28" vertex="1">
          <mxGeometry x="-0.43490825480640727" relative="1" as="geometry" />
        </mxCell>
        <UserObject label="end" lucidchartObjectId="aqH1BiNNuj9F" id="JMHAezPrtOHfuT_MYLwp-30">
          <mxCell style="html=1;overflow=block;blockSpacing=1;whiteSpace=wrap;rounded=1;arcSize=50;whiteSpace=wrap;fontSize=13.5;fontColor=#333333;fontStyle=1;spacing=3.8;strokeOpacity=0;fillOpacity=100;fillColor=#ffeadb;strokeWidth=0.8;" parent="JMHAezPrtOHfuT_MYLwp-1" vertex="1">
            <mxGeometry x="360" y="121" width="120" height="60" as="geometry" />
          </mxCell>
        </UserObject>
        <UserObject label="Terminator" lucidchartObjectId="aqH1OxCBwXrQ" id="JMHAezPrtOHfuT_MYLwp-31">
          <mxCell style="html=1;overflow=block;blockSpacing=1;whiteSpace=wrap;rounded=1;arcSize=50;whiteSpace=wrap;fontSize=13.5;fontColor=#333333;fontStyle=1;align=center;spacing=3.8;strokeOpacity=0;fillOpacity=100;fillColor=#ff741d;strokeWidth=0.8;" parent="JMHAezPrtOHfuT_MYLwp-1" vertex="1">
            <mxGeometry x="360" y="315" width="120" height="60" as="geometry" />
          </mxCell>
        </UserObject>
        <UserObject label="Error\n" lucidchartObjectId="jsH1VjhF055v" id="JMHAezPrtOHfuT_MYLwp-32">
          <mxCell style="html=1;overflow=block;blockSpacing=1;whiteSpace=wrap;shape=manualInput;size=15;whiteSpace=wrap;fontSize=13.5;fontColor=#333333;fontStyle=1;align=center;spacing=3.8;strokeOpacity=0;fillOpacity=100;rounded=1;absoluteArcSize=1;arcSize=12;fillColor=#ff8839;strokeWidth=1.5;" parent="JMHAezPrtOHfuT_MYLwp-1" vertex="1">
            <mxGeometry x="825" y="540" width="120" height="90" as="geometry" />
          </mxCell>
        </UserObject>
        <UserObject label="argc &amp;lt;=  3?" lucidchartObjectId="rDH1M243WrlN" id="JMHAezPrtOHfuT_MYLwp-33">
          <mxCell style="html=1;overflow=block;blockSpacing=1;whiteSpace=wrap;rhombus;whiteSpace=wrap;fontSize=13.5;fontColor=#333333;fontStyle=1;align=center;spacing=3.8;strokeColor=#fe5900;strokeOpacity=100;rounded=1;absoluteArcSize=1;arcSize=12;strokeWidth=3;" parent="JMHAezPrtOHfuT_MYLwp-1" vertex="1">
            <mxGeometry x="599" y="690" width="120" height="90" as="geometry" />
          </mxCell>
        </UserObject>
        <UserObject label="" lucidchartObjectId="uFH1jI0kZv0J" id="JMHAezPrtOHfuT_MYLwp-34">
          <mxCell style="html=1;jettySize=18;whiteSpace=wrap;fontSize=13.5;fontColor=#333333;fontStyle=1;align=center;strokeColor=#333333;strokeOpacity=100;strokeWidth=0.8;rounded=1;arcSize=24;edgeStyle=orthogonalEdgeStyle;startArrow=none;;endArrow=block;endFill=1;;exitX=0.988;exitY=0.5;exitPerimeter=0;entryX=0;entryY=0.5;entryPerimeter=0;" parent="JMHAezPrtOHfuT_MYLwp-1" source="JMHAezPrtOHfuT_MYLwp-33" target="JMHAezPrtOHfuT_MYLwp-36" edge="1">
            <mxGeometry width="100" height="100" relative="1" as="geometry">
              <Array as="points" />
            </mxGeometry>
          </mxCell>
        </UserObject>
        <mxCell id="JMHAezPrtOHfuT_MYLwp-35" value="Yes" style="text;html=1;resizable=0;labelBackgroundColor=#ffffff;align=center;verticalAlign=middle;fontStyle=1;fontColor=#333333;;fontSize=13.5;" parent="JMHAezPrtOHfuT_MYLwp-34" vertex="1">
          <mxGeometry relative="1" as="geometry" />
        </mxCell>
        <UserObject label="sort_3_stack" lucidchartObjectId="EFH1u~l2R9a2" id="JMHAezPrtOHfuT_MYLwp-36">
          <mxCell style="html=1;overflow=block;blockSpacing=1;whiteSpace=wrap;;whiteSpace=wrap;fontSize=13.5;fontColor=#333333;fontStyle=1;align=center;spacing=9;strokeOpacity=0;fillOpacity=100;rounded=1;absoluteArcSize=1;arcSize=12;fillColor=#ff8839;strokeWidth=1.5;" parent="JMHAezPrtOHfuT_MYLwp-1" vertex="1">
            <mxGeometry x="825" y="690" width="120" height="90" as="geometry" />
          </mxCell>
        </UserObject>
        <UserObject label="" lucidchartObjectId="xGH1lY.D79JZ" id="JMHAezPrtOHfuT_MYLwp-37">
          <mxCell style="html=1;jettySize=18;whiteSpace=wrap;fontSize=13.5;fontColor=#333333;fontStyle=1;align=center;strokeColor=#333333;strokeOpacity=100;strokeWidth=0.8;rounded=1;arcSize=24;edgeStyle=orthogonalEdgeStyle;startArrow=none;;endArrow=block;endFill=1;;exitX=0.5;exitY=0.992;exitPerimeter=0;entryX=0.5;entryY=0.008;entryPerimeter=0;" parent="JMHAezPrtOHfuT_MYLwp-1" source="JMHAezPrtOHfuT_MYLwp-33" target="JMHAezPrtOHfuT_MYLwp-39" edge="1">
            <mxGeometry width="100" height="100" relative="1" as="geometry">
              <Array as="points" />
            </mxGeometry>
          </mxCell>
        </UserObject>
        <mxCell id="JMHAezPrtOHfuT_MYLwp-38" value="No" style="text;html=1;resizable=0;labelBackgroundColor=#ffffff;align=center;verticalAlign=middle;fontStyle=1;fontColor=#333333;;fontSize=13.5;" parent="JMHAezPrtOHfuT_MYLwp-37" vertex="1">
          <mxGeometry relative="1" as="geometry" />
        </mxCell>
        <UserObject label="3 &amp;lt; argc &amp;lt; 6?" lucidchartObjectId="BGH1OpxcpzJ6" id="JMHAezPrtOHfuT_MYLwp-39">
          <mxCell style="html=1;overflow=block;blockSpacing=1;whiteSpace=wrap;rhombus;whiteSpace=wrap;fontSize=13.5;fontColor=#333333;fontStyle=1;align=center;spacing=3.8;strokeColor=#fe5900;strokeOpacity=100;rounded=1;absoluteArcSize=1;arcSize=12;strokeWidth=3;" parent="JMHAezPrtOHfuT_MYLwp-1" vertex="1">
            <mxGeometry x="600" y="832" width="120" height="90" as="geometry" />
          </mxCell>
        </UserObject>
        <UserObject label="" lucidchartObjectId="XHH1oqAol0R0" id="JMHAezPrtOHfuT_MYLwp-40">
          <mxCell style="html=1;jettySize=18;whiteSpace=wrap;fontSize=13.5;fontColor=#333333;fontStyle=1;align=center;strokeColor=#333333;strokeOpacity=100;strokeWidth=0.8;rounded=1;arcSize=24;edgeStyle=orthogonalEdgeStyle;startArrow=none;;endArrow=block;endFill=1;;exitX=0.988;exitY=0.5;exitPerimeter=0;entryX=0;entryY=0.5;entryPerimeter=0;" parent="JMHAezPrtOHfuT_MYLwp-1" source="JMHAezPrtOHfuT_MYLwp-39" target="JMHAezPrtOHfuT_MYLwp-42" edge="1">
            <mxGeometry width="100" height="100" relative="1" as="geometry">
              <Array as="points" />
            </mxGeometry>
          </mxCell>
        </UserObject>
        <mxCell id="JMHAezPrtOHfuT_MYLwp-41" value="Yes" style="text;html=1;resizable=0;labelBackgroundColor=#ffffff;align=center;verticalAlign=middle;fontStyle=1;fontColor=#333333;;fontSize=13.5;" parent="JMHAezPrtOHfuT_MYLwp-40" vertex="1">
          <mxGeometry relative="1" as="geometry" />
        </mxCell>
        <UserObject label="sort_small_stack" lucidchartObjectId="ZHH1~XTn7wy5" id="JMHAezPrtOHfuT_MYLwp-42">
          <mxCell style="html=1;overflow=block;blockSpacing=1;whiteSpace=wrap;;whiteSpace=wrap;fontSize=13.5;fontColor=#333333;fontStyle=1;align=center;spacing=9;strokeOpacity=0;fillOpacity=100;rounded=1;absoluteArcSize=1;arcSize=12;fillColor=#ff8839;strokeWidth=1.5;" parent="JMHAezPrtOHfuT_MYLwp-1" vertex="1">
            <mxGeometry x="825" y="832" width="120" height="90" as="geometry" />
          </mxCell>
        </UserObject>
        <UserObject label="" lucidchartObjectId="-HH1J~ossGlk" id="JMHAezPrtOHfuT_MYLwp-43">
          <mxCell style="html=1;jettySize=18;whiteSpace=wrap;fontSize=13.5;fontColor=#333333;fontStyle=1;align=center;strokeColor=#333333;strokeOpacity=100;strokeWidth=0.8;rounded=1;arcSize=24;edgeStyle=orthogonalEdgeStyle;startArrow=none;;endArrow=block;endFill=1;;exitX=0.5;exitY=0.992;exitPerimeter=0;entryX=0.5;entryY=0.008;entryPerimeter=0;" parent="JMHAezPrtOHfuT_MYLwp-1" source="JMHAezPrtOHfuT_MYLwp-39" target="JMHAezPrtOHfuT_MYLwp-45" edge="1">
            <mxGeometry width="100" height="100" relative="1" as="geometry">
              <Array as="points" />
            </mxGeometry>
          </mxCell>
        </UserObject>
        <mxCell id="JMHAezPrtOHfuT_MYLwp-44" value="No" style="text;html=1;resizable=0;labelBackgroundColor=#ffffff;align=center;verticalAlign=middle;fontStyle=1;fontColor=#333333;;fontSize=13.5;" parent="JMHAezPrtOHfuT_MYLwp-43" vertex="1">
          <mxGeometry relative="1" as="geometry" />
        </mxCell>
        <UserObject label="6 &amp;lt;= argc?" lucidchartObjectId="cIH1nYDqsa0n" id="JMHAezPrtOHfuT_MYLwp-45">
          <mxCell style="html=1;overflow=block;blockSpacing=1;whiteSpace=wrap;rhombus;whiteSpace=wrap;fontSize=13.5;fontColor=#333333;fontStyle=1;align=center;spacing=3.8;strokeColor=#fe5900;strokeOpacity=100;rounded=1;absoluteArcSize=1;arcSize=12;strokeWidth=3;" parent="JMHAezPrtOHfuT_MYLwp-1" vertex="1">
            <mxGeometry x="600" y="982" width="120" height="90" as="geometry" />
          </mxCell>
        </UserObject>
        <UserObject label="" lucidchartObjectId="EIH1nwir7GMQ" id="JMHAezPrtOHfuT_MYLwp-46">
          <mxCell style="html=1;jettySize=18;whiteSpace=wrap;fontSize=13.5;fontColor=#333333;fontStyle=1;align=center;strokeColor=#333333;strokeOpacity=100;strokeWidth=0.8;rounded=1;arcSize=24;edgeStyle=orthogonalEdgeStyle;startArrow=none;;endArrow=block;endFill=1;;exitX=0.988;exitY=0.5;exitPerimeter=0;entryX=0;entryY=0.5;entryPerimeter=0;" parent="JMHAezPrtOHfuT_MYLwp-1" source="JMHAezPrtOHfuT_MYLwp-45" target="JMHAezPrtOHfuT_MYLwp-48" edge="1">
            <mxGeometry width="100" height="100" relative="1" as="geometry">
              <Array as="points" />
            </mxGeometry>
          </mxCell>
        </UserObject>
        <mxCell id="JMHAezPrtOHfuT_MYLwp-47" value="Yes" style="text;html=1;resizable=0;labelBackgroundColor=#ffffff;align=center;verticalAlign=middle;fontStyle=1;fontColor=#333333;;fontSize=13.5;" parent="JMHAezPrtOHfuT_MYLwp-46" vertex="1">
          <mxGeometry relative="1" as="geometry" />
        </mxCell>
        <UserObject label="sort_large_stack" lucidchartObjectId="GIH1YYw9JWD3" id="JMHAezPrtOHfuT_MYLwp-48">
          <mxCell style="html=1;overflow=block;blockSpacing=1;whiteSpace=wrap;;whiteSpace=wrap;fontSize=13.5;fontColor=#333333;fontStyle=1;align=center;spacing=9;strokeOpacity=0;fillOpacity=100;rounded=1;absoluteArcSize=1;arcSize=12;fillColor=#ff8839;strokeWidth=1.5;" parent="JMHAezPrtOHfuT_MYLwp-1" vertex="1">
            <mxGeometry x="825" y="982" width="120" height="90" as="geometry" />
          </mxCell>
        </UserObject>
        <UserObject label="Contain&#xa;same numbers?" lucidchartObjectId=".JH19rNJNM3c" id="JMHAezPrtOHfuT_MYLwp-49">
          <mxCell style="html=1;overflow=block;blockSpacing=1;whiteSpace=wrap;rhombus;whiteSpace=wrap;fontSize=13.5;fontColor=#333333;fontStyle=1;align=center;spacing=3.8;strokeColor=#fe5900;strokeOpacity=100;rounded=1;absoluteArcSize=1;arcSize=12;strokeWidth=3;" parent="JMHAezPrtOHfuT_MYLwp-1" vertex="1">
            <mxGeometry x="599" y="540" width="120" height="90" as="geometry" />
          </mxCell>
        </UserObject>
        <UserObject label="" lucidchartObjectId="qKH1uAzm7USN" id="JMHAezPrtOHfuT_MYLwp-50">
          <mxCell style="html=1;jettySize=18;whiteSpace=wrap;fontSize=13.5;fontColor=#333333;fontStyle=1;align=center;strokeColor=#333333;strokeOpacity=100;strokeWidth=0.8;rounded=1;arcSize=24;edgeStyle=orthogonalEdgeStyle;startArrow=none;;endArrow=block;endFill=1;;exitX=0.988;exitY=0.5;exitPerimeter=0;entryX=0;entryY=0.5;entryPerimeter=0;" parent="JMHAezPrtOHfuT_MYLwp-1" source="JMHAezPrtOHfuT_MYLwp-49" target="JMHAezPrtOHfuT_MYLwp-32" edge="1">
            <mxGeometry width="100" height="100" relative="1" as="geometry">
              <Array as="points" />
            </mxGeometry>
          </mxCell>
        </UserObject>
        <mxCell id="JMHAezPrtOHfuT_MYLwp-51" value="Yes" style="text;html=1;resizable=0;labelBackgroundColor=#ffffff;align=center;verticalAlign=middle;fontStyle=1;fontColor=#333333;;fontSize=13.5;" parent="JMHAezPrtOHfuT_MYLwp-50" vertex="1">
          <mxGeometry relative="1" as="geometry" />
        </mxCell>
        <UserObject label="" lucidchartObjectId="CKH1~gvsEuDL" id="JMHAezPrtOHfuT_MYLwp-52">
          <mxCell style="html=1;jettySize=18;whiteSpace=wrap;fontSize=13.5;fontColor=#333333;fontStyle=1;align=center;strokeColor=#333333;strokeOpacity=100;strokeWidth=0.8;rounded=1;arcSize=24;edgeStyle=orthogonalEdgeStyle;startArrow=none;;endArrow=block;endFill=1;;exitX=0.5;exitY=0.992;exitPerimeter=0;entryX=0.5;entryY=0.008;entryPerimeter=0;" parent="JMHAezPrtOHfuT_MYLwp-1" source="JMHAezPrtOHfuT_MYLwp-49" target="JMHAezPrtOHfuT_MYLwp-33" edge="1">
            <mxGeometry width="100" height="100" relative="1" as="geometry">
              <Array as="points" />
            </mxGeometry>
          </mxCell>
        </UserObject>
        <mxCell id="JMHAezPrtOHfuT_MYLwp-53" value="No" style="text;html=1;resizable=0;labelBackgroundColor=#ffffff;align=center;verticalAlign=middle;fontStyle=1;fontColor=#333333;;fontSize=13.5;" parent="JMHAezPrtOHfuT_MYLwp-52" vertex="1">
          <mxGeometry relative="1" as="geometry" />
        </mxCell>
        <UserObject label="" lucidchartObjectId=".LH1cJEjyYF8" id="JMHAezPrtOHfuT_MYLwp-54">
          <mxCell style="html=1;jettySize=18;whiteSpace=wrap;fontSize=13;strokeColor=#333333;strokeOpacity=100;strokeWidth=0.8;rounded=1;arcSize=24;edgeStyle=orthogonalEdgeStyle;startArrow=none;;endArrow=block;endFill=1;;exitX=0.5;exitY=0;exitPerimeter=0;entryX=0.5;entryY=1;entryPerimeter=0;" parent="JMHAezPrtOHfuT_MYLwp-1" source="JMHAezPrtOHfuT_MYLwp-48" target="JMHAezPrtOHfuT_MYLwp-42" edge="1">
            <mxGeometry width="100" height="100" relative="1" as="geometry">
              <Array as="points" />
            </mxGeometry>
          </mxCell>
        </UserObject>
        <UserObject label="" lucidchartObjectId="eMH1.HgFWNoq" id="JMHAezPrtOHfuT_MYLwp-55">
          <mxCell style="html=1;jettySize=18;whiteSpace=wrap;fontSize=13;fontColor=#333333;fontStyle=1;align=center;strokeColor=#333333;strokeOpacity=100;strokeWidth=0.8;rounded=1;arcSize=24;edgeStyle=orthogonalEdgeStyle;startArrow=none;;endArrow=block;endFill=1;;exitX=0.5;exitY=0.992;exitPerimeter=0;entryX=0.5;entryY=0.1;entryPerimeter=0;" parent="JMHAezPrtOHfuT_MYLwp-1" source="JMHAezPrtOHfuT_MYLwp-45" target="JMHAezPrtOHfuT_MYLwp-57" edge="1">
            <mxGeometry width="100" height="100" relative="1" as="geometry">
              <Array as="points" />
            </mxGeometry>
          </mxCell>
        </UserObject>
        <mxCell id="JMHAezPrtOHfuT_MYLwp-56" value="No" style="text;html=1;resizable=0;labelBackgroundColor=#ffffff;align=center;verticalAlign=middle;fontStyle=1;fontColor=#333333;;fontSize=13;" parent="JMHAezPrtOHfuT_MYLwp-55" vertex="1">
          <mxGeometry relative="1" as="geometry" />
        </mxCell>
        <UserObject label="output &#xa;commands used" lucidchartObjectId="xMH1A-kEF0QL" id="JMHAezPrtOHfuT_MYLwp-57">
          <mxCell style="html=1;overflow=block;blockSpacing=1;whiteSpace=wrap;shape=manualInput;size=15;whiteSpace=wrap;fontSize=13;fontColor=#333333;fontStyle=1;align=center;spacing=3.8;strokeOpacity=0;fillOpacity=100;rounded=1;absoluteArcSize=1;arcSize=12;fillColor=#ff8839;strokeWidth=1.5;" parent="JMHAezPrtOHfuT_MYLwp-1" vertex="1">
            <mxGeometry x="601" y="1131" width="120" height="90" as="geometry" />
          </mxCell>
        </UserObject>
        <UserObject label="" lucidchartObjectId="kPH1N3JiJiy_" id="JMHAezPrtOHfuT_MYLwp-58">
          <mxCell style="html=1;jettySize=18;whiteSpace=wrap;fontSize=13;strokeColor=#333333;strokeOpacity=100;strokeWidth=0.8;rounded=1;arcSize=24;edgeStyle=orthogonalEdgeStyle;startArrow=none;;endArrow=block;endFill=1;;exitX=0.5;exitY=1;exitPerimeter=0;entryX=0.5;entryY=0;entryPerimeter=0;" parent="JMHAezPrtOHfuT_MYLwp-1" source="JMHAezPrtOHfuT_MYLwp-57" target="JMHAezPrtOHfuT_MYLwp-59" edge="1">
            <mxGeometry width="100" height="100" relative="1" as="geometry">
              <Array as="points" />
            </mxGeometry>
          </mxCell>
        </UserObject>
        <UserObject label="end" lucidchartObjectId="lPH1lBee60j6" id="JMHAezPrtOHfuT_MYLwp-59">
          <mxCell style="html=1;overflow=block;blockSpacing=1;whiteSpace=wrap;rounded=1;arcSize=50;whiteSpace=wrap;fontSize=13;fontColor=#333333;fontStyle=1;align=center;spacing=3.8;strokeOpacity=0;fillOpacity=100;fillColor=#ff741d;strokeWidth=0.8;" parent="JMHAezPrtOHfuT_MYLwp-1" vertex="1">
            <mxGeometry x="601" y="1266" width="120" height="60" as="geometry" />
          </mxCell>
        </UserObject>
        <mxCell id="JMHAezPrtOHfuT_MYLwp-60" value="sort_3_stack" parent="0" />
        <mxCell id="JMHAezPrtOHfuT_MYLwp-61" value="" style="group;dropTarget=0;" parent="JMHAezPrtOHfuT_MYLwp-60" vertex="1">
          <mxGeometry x="945" y="690" width="392" height="405" as="geometry" />
        </mxCell>
        <UserObject label="argc &amp;lt;= 2?" lucidchartObjectId="s-H10PLq-anF" id="JMHAezPrtOHfuT_MYLwp-62">
          <mxCell style="html=1;overflow=block;blockSpacing=1;whiteSpace=wrap;rhombus;whiteSpace=wrap;fontSize=13.5;fontColor=#333333;fontStyle=1;align=center;spacing=3.8;strokeColor=#fe5900;strokeOpacity=100;rounded=1;absoluteArcSize=1;arcSize=12;strokeWidth=3;" parent="JMHAezPrtOHfuT_MYLwp-61" vertex="1">
            <mxGeometry x="46" width="120" height="90" as="geometry" />
          </mxCell>
        </UserObject>
        <UserObject label="\0" lucidchartObjectId="s-H1LTRPkYFE" id="JMHAezPrtOHfuT_MYLwp-63">
          <mxCell style="html=1;overflow=block;blockSpacing=1;whiteSpace=wrap;shape=manualInput;size=15;whiteSpace=wrap;fontSize=13.5;fontColor=#333333;fontStyle=1;align=center;spacing=3.8;strokeOpacity=0;fillOpacity=100;rounded=1;absoluteArcSize=1;arcSize=12;fillColor=#ff8839;strokeWidth=1.5;" parent="JMHAezPrtOHfuT_MYLwp-61" vertex="1">
            <mxGeometry x="272" width="120" height="90" as="geometry" />
          </mxCell>
        </UserObject>
        <UserObject label="argc == 3" lucidchartObjectId="Z_H135.lEekD" id="JMHAezPrtOHfuT_MYLwp-64">
          <mxCell style="html=1;overflow=block;blockSpacing=1;whiteSpace=wrap;rhombus;whiteSpace=wrap;fontSize=13;fontFamily=Liberation Serif;fontColor=#333333;align=center;spacing=3.8;strokeColor=#fe5900;strokeOpacity=100;rounded=1;absoluteArcSize=1;arcSize=12;strokeWidth=3;" parent="JMHAezPrtOHfuT_MYLwp-61" vertex="1">
            <mxGeometry x="46" y="150" width="120" height="90" as="geometry" />
          </mxCell>
        </UserObject>
        <UserObject label="swap" lucidchartObjectId="q.H1XCoUrUAm" id="JMHAezPrtOHfuT_MYLwp-65">
          <mxCell style="html=1;overflow=block;blockSpacing=1;whiteSpace=wrap;;whiteSpace=wrap;fontSize=13;fontFamily=Liberation Serif;fontColor=#333333;align=center;spacing=9;strokeOpacity=0;fillOpacity=100;rounded=1;absoluteArcSize=1;arcSize=12;fillColor=#ff8839;strokeWidth=1.5;" parent="JMHAezPrtOHfuT_MYLwp-61" vertex="1">
            <mxGeometry x="272" y="150" width="120" height="90" as="geometry" />
          </mxCell>
        </UserObject>
        <UserObject label="argc == 4" lucidchartObjectId="r~H1IVzVkkO2" id="JMHAezPrtOHfuT_MYLwp-66">
          <mxCell style="html=1;overflow=block;blockSpacing=1;whiteSpace=wrap;rhombus;whiteSpace=wrap;fontSize=13;fontFamily=Liberation Serif;fontColor=#333333;align=center;spacing=3.8;strokeColor=#fe5900;strokeOpacity=100;rounded=1;absoluteArcSize=1;arcSize=12;strokeWidth=3;" parent="JMHAezPrtOHfuT_MYLwp-61" vertex="1">
            <mxGeometry x="46" y="315" width="120" height="90" as="geometry" />
          </mxCell>
        </UserObject>
        <UserObject label="" lucidchartObjectId="s-H1vOVGJa5U" id="JMHAezPrtOHfuT_MYLwp-67">
          <mxCell style="html=1;jettySize=18;whiteSpace=wrap;fontSize=13.5;fontColor=#333333;fontStyle=1;align=center;strokeColor=#333333;strokeOpacity=100;strokeWidth=0.8;rounded=1;arcSize=24;edgeStyle=orthogonalEdgeStyle;startArrow=none;;endArrow=block;endFill=1;;exitX=0.988;exitY=0.5;exitPerimeter=0;entryX=0;entryY=0.5;entryPerimeter=0;" parent="JMHAezPrtOHfuT_MYLwp-61" source="JMHAezPrtOHfuT_MYLwp-62" target="JMHAezPrtOHfuT_MYLwp-63" edge="1">
            <mxGeometry width="100" height="100" relative="1" as="geometry">
              <Array as="points" />
            </mxGeometry>
          </mxCell>
        </UserObject>
        <mxCell id="JMHAezPrtOHfuT_MYLwp-68" value="Yes" style="text;html=1;resizable=0;labelBackgroundColor=#ffffff;align=center;verticalAlign=middle;fontStyle=1;fontColor=#333333;;fontSize=13.5;" parent="JMHAezPrtOHfuT_MYLwp-67" vertex="1">
          <mxGeometry relative="1" as="geometry" />
        </mxCell>
        <UserObject label="" lucidchartObjectId="s-H1yYf2EJy." id="JMHAezPrtOHfuT_MYLwp-69">
          <mxCell style="html=1;jettySize=18;whiteSpace=wrap;fontSize=13.5;fontColor=#333333;fontStyle=1;align=center;strokeColor=#333333;strokeOpacity=100;strokeWidth=0.8;rounded=1;arcSize=24;edgeStyle=orthogonalEdgeStyle;startArrow=none;;endArrow=block;endFill=1;;exitX=0.5;exitY=0.992;exitPerimeter=0;entryX=0.5;entryY=0.008;entryPerimeter=0;" parent="JMHAezPrtOHfuT_MYLwp-61" source="JMHAezPrtOHfuT_MYLwp-62" target="JMHAezPrtOHfuT_MYLwp-64" edge="1">
            <mxGeometry width="100" height="100" relative="1" as="geometry">
              <Array as="points" />
            </mxGeometry>
          </mxCell>
        </UserObject>
        <mxCell id="JMHAezPrtOHfuT_MYLwp-70" value="No" style="text;html=1;resizable=0;labelBackgroundColor=#ffffff;align=center;verticalAlign=middle;fontStyle=1;fontColor=#333333;;fontSize=13.5;" parent="JMHAezPrtOHfuT_MYLwp-69" vertex="1">
          <mxGeometry relative="1" as="geometry" />
        </mxCell>
        <UserObject label="" lucidchartObjectId="s-H1puZbBjiy" id="JMHAezPrtOHfuT_MYLwp-71">
          <mxCell style="html=1;jettySize=18;whiteSpace=wrap;fontSize=13;strokeColor=#333333;strokeOpacity=100;strokeWidth=0.8;rounded=1;arcSize=24;edgeStyle=orthogonalEdgeStyle;startArrow=none;;endArrow=block;endFill=1;;exitX=1;exitY=0.5;exitPerimeter=0;entryX=0.012;entryY=0.5;entryPerimeter=0;" parent="JMHAezPrtOHfuT_MYLwp-61" source="JMHAezPrtOHfuT_MYLwp-36" target="JMHAezPrtOHfuT_MYLwp-62" edge="1">
            <mxGeometry width="100" height="100" relative="1" as="geometry">
              <Array as="points" />
            </mxGeometry>
          </mxCell>
        </UserObject>
        <UserObject label="" lucidchartObjectId="~_H1poxTp6r0" id="JMHAezPrtOHfuT_MYLwp-72">
          <mxCell style="html=1;jettySize=18;whiteSpace=wrap;fontSize=13;fontFamily=Liberation Serif;fontColor=#333333;align=center;strokeColor=#333333;strokeOpacity=100;strokeWidth=0.8;rounded=1;arcSize=24;edgeStyle=orthogonalEdgeStyle;startArrow=none;;endArrow=block;endFill=1;;exitX=0.988;exitY=0.5;exitPerimeter=0;entryX=0;entryY=0.5;entryPerimeter=0;" parent="JMHAezPrtOHfuT_MYLwp-61" source="JMHAezPrtOHfuT_MYLwp-64" target="JMHAezPrtOHfuT_MYLwp-65" edge="1">
            <mxGeometry width="100" height="100" relative="1" as="geometry">
              <Array as="points" />
            </mxGeometry>
          </mxCell>
        </UserObject>
        <mxCell id="JMHAezPrtOHfuT_MYLwp-73" value="Yes" style="text;html=1;resizable=0;labelBackgroundColor=#ffffff;align=center;verticalAlign=middle;fontColor=#333333;;fontSize=13;" parent="JMHAezPrtOHfuT_MYLwp-72" vertex="1">
          <mxGeometry relative="1" as="geometry" />
        </mxCell>
        <UserObject label="" lucidchartObjectId="p~H10kVik_7v" id="JMHAezPrtOHfuT_MYLwp-74">
          <mxCell style="html=1;jettySize=18;whiteSpace=wrap;fontSize=13;fontFamily=Liberation Serif;fontColor=#333333;align=center;strokeColor=#333333;strokeOpacity=100;strokeWidth=0.8;rounded=1;arcSize=24;edgeStyle=orthogonalEdgeStyle;startArrow=none;;endArrow=block;endFill=1;;exitX=0.5;exitY=0.992;exitPerimeter=0;entryX=0.5;entryY=0.008;entryPerimeter=0;" parent="JMHAezPrtOHfuT_MYLwp-61" source="JMHAezPrtOHfuT_MYLwp-64" target="JMHAezPrtOHfuT_MYLwp-66" edge="1">
            <mxGeometry width="100" height="100" relative="1" as="geometry">
              <Array as="points" />
            </mxGeometry>
          </mxCell>
        </UserObject>
        <mxCell id="JMHAezPrtOHfuT_MYLwp-75" value="No" style="text;html=1;resizable=0;labelBackgroundColor=#ffffff;align=center;verticalAlign=middle;fontColor=#333333;;fontSize=13;" parent="JMHAezPrtOHfuT_MYLwp-74" vertex="1">
          <mxGeometry relative="1" as="geometry" />
        </mxCell>
        <mxCell id="JMHAezPrtOHfuT_MYLwp-76" value="base-code" parent="0" />
        <mxCell id="JMHAezPrtOHfuT_MYLwp-77" value="" style="group;dropTarget=0;" parent="JMHAezPrtOHfuT_MYLwp-76" vertex="1">
          <mxGeometry as="geometry" />
        </mxCell>
      </root>
    </mxGraphModel>
  </diagram>
</mxfile>
